# xmcd
#
# Track frame offsets:
#	150
#	14102
#	35108
#	57848
#	72092
#	87217
#	103016
#	126072
#	140154
#	154512
#	168583
#	185513
#	205076
#	219474
#	231945
#	247684
#	260475
#	276520
#	290758
#
# Disc length: 4094 seconds
#
# Revision: 1
# Processed by: cddbd v1.5.2PL0 Copyright (c) Steve Scherf et al.
# Submitted via: audiograbber 1.83.01
#
DISCID=230ffc13
DTITLE=Various Artist - Hott Country 142
DYEAR=2007
DGENRE=Country
TTITLE0=Toby Keith - Get My Drink On
TTITLE1=Alan Jackson - Small Town Southern Man
TTITLE2=Reba McEntire and Justin Tmberlake - The Only Promise That remains
TTITLE3=Prairie Oyster - Open Up Your heart
TTITLE4=Anne Murray and O. Newton John - Cotton Jenny
TTITLE5=Michelle Wright - I Don't Wanna Be That Strong
TTITLE6=Vince Gill - How Lonely looks
TTITLE7=Shooter Jennings - Walk Of Life
TTITLE8=Jason Blaine - Flirtin'  With Me
TTITLE9=Ashton Shepherd - Takin' Off This Pain
TTITLE10=Josh Gracin - We Weren't Crazy
TTITLE11=Carolina Rain - Dealin'
TTITLE12=Jake Owens - Something About A Woman
TTITLE13=Mark Chesnutt - Rollin' With The Flow
TTITLE14=Keith Urban - Got It Rght This Time
TTITLE15=Chris Cummings - In The Nicest Way
TTITLE16=Jessie Farrell - Christmas At My House
TTITLE17=Brad Johner - Ho Ho Hold Me Close
TTITLE18=Kenny Rogers and Kin Carnes - Don't Fall In Love With A Dreamer
EXTD=December 2007
EXTT0=
EXTT1=
EXTT2=
EXTT3=
EXTT4=
EXTT5=
EXTT6=
EXTT7=
EXTT8=
EXTT9=
EXTT10=
EXTT11=
EXTT12=
EXTT13=
EXTT14=
EXTT15=
EXTT16=
EXTT17=
EXTT18=
PLAYORDER=
